<?xml version="1.0" standalone="no"?>
<!DOCTYPE svg PUBLIC "-//W3C//DTD SVG 20010904//EN"
 "http://www.w3.org/TR/2001/REC-SVG-20010904/DTD/svg10.dtd">
<svg version="1.0" xmlns="http://www.w3.org/2000/svg"
 width="400.000000pt" height="400.000000pt" viewBox="0 0 400.000000 400.000000"
 preserveAspectRatio="xMidYMid meet">
<metadata>
Created by potrace 1.11, written by Peter Selinger 2001-2013
</metadata>
<g transform="translate(0.000000,400.000000) scale(0.100000,-0.100000)"
fill="#000000" stroke="none">
<path d="M2545 3670 c-3 -5 -3 -10 2 -10 4 0 0 -5 -10 -11 -10 -6 -21 -8 -24
-5 -4 3 -1 6 5 6 21 0 13 16 -8 17 -13 1 -18 -2 -14 -10 5 -9 4 -9 -6 0 -14
13 -43 6 -34 -8 3 -5 -2 -6 -10 -3 -9 3 -13 11 -10 18 3 6 -1 4 -8 -6 -10 -12
-19 -13 -31 -7 -22 13 -22 5 0 -17 16 -16 16 -16 -4 -10 -51 16 -62 15 -58 -5
3 -16 1 -18 -16 -9 -15 9 -21 7 -25 -5 -3 -8 -10 -15 -16 -15 -5 0 -6 5 -2 12
4 7 3 8 -5 4 -6 -4 -9 -11 -6 -16 3 -5 1 -11 -5 -15 -5 -3 -10 0 -10 7 0 8 -3
9 -8 3 -4 -5 -18 -11 -32 -13 -20 -2 -22 -1 -10 8 13 10 13 11 0 7 -8 -2 -14
-11 -14 -20 1 -9 -2 -14 -7 -11 -5 3 -9 12 -9 20 0 8 -5 14 -11 14 -5 0 -7 -6
-3 -12 6 -10 4 -10 -8 0 -13 10 -18 10 -24 1 -5 -8 -3 -9 6 -4 8 5 11 4 6 -3
-4 -6 -13 -9 -21 -6 -8 4 -13 9 -10 13 2 4 -2 8 -11 8 -10 0 -12 -7 -8 -21 4
-15 3 -17 -4 -7 -6 8 -15 10 -23 5 -11 -6 -11 -3 1 12 8 10 11 16 6 12 -5 -4
-18 -3 -29 3 -14 8 -18 8 -12 -1 5 -8 -2 -10 -24 -7 -17 3 -34 0 -37 -5 -5 -7
-2 -8 6 -3 8 5 11 4 6 -3 -4 -6 -13 -9 -21 -6 -8 4 -13 9 -11 13 2 3 -13 7
-35 8 -27 1 -37 -2 -32 -10 4 -7 0 -6 -10 1 -9 8 -21 11 -26 8 -5 -4 -14 2
-20 11 -10 17 -10 17 -11 1 0 -10 -4 -18 -9 -18 -6 0 -8 9 -6 20 2 11 -1 23
-7 26 -6 4 -8 3 -5 -3 4 -6 -1 -17 -10 -24 -12 -10 -14 -10 -9 -1 4 7 2 12 -4
12 -6 0 -9 4 -6 9 3 5 0 9 -7 8 -35 -1 -48 4 -41 16 6 9 5 9 -8 0 -8 -7 -19
-9 -23 -5 -5 4 -5 1 -1 -5 5 -9 2 -11 -8 -7 -9 3 -13 11 -9 18 3 6 -4 2 -16
-8 -17 -16 -21 -17 -16 -4 5 13 1 16 -19 14 -14 -2 -26 2 -26 8 0 6 -4 4 -9
-4 -6 -8 -8 -17 -6 -20 2 -4 -2 -7 -10 -7 -11 0 -12 4 -4 13 7 8 6 14 -2 20
-8 4 -9 3 -5 -4 4 -7 1 -12 -9 -12 -10 0 -13 -5 -9 -12 4 -7 3 -8 -5 -4 -8 6
-9 12 -2 20 8 9 7 13 -4 13 -8 0 -12 -4 -9 -8 2 -4 0 -10 -6 -14 -5 -3 -10 -1
-10 4 0 6 -5 11 -11 11 -5 0 -8 -4 -5 -9 10 -16 -23 -20 -39 -5 -9 9 -15 11
-15 4 0 -6 -5 -8 -12 -4 -10 6 -10 5 -1 -7 10 -12 8 -15 -8 -15 -14 0 -18 5
-14 21 5 18 5 18 -5 3 -6 -10 -17 -18 -25 -18 -7 0 -16 -8 -18 -17 -4 -17 -5
-17 -6 0 -1 19 -16 23 -26 7 -4 -6 -12 -7 -18 -3 -7 4 -7 0 1 -10 12 -14 11
-15 -13 -11 -20 3 -25 1 -19 -8 5 -8 1 -7 -11 2 -17 13 -18 13 -13 -1 4 -9 -2
-20 -13 -28 -11 -6 -17 -17 -13 -24 5 -8 2 -8 -7 1 -12 11 -11 15 3 23 10 6
18 15 18 20 0 6 -7 3 -16 -6 -9 -9 -23 -14 -32 -10 -11 4 -12 2 -4 -8 8 -9 8
-17 0 -27 -8 -12 -9 -12 -4 3 3 9 1 17 -4 17 -6 0 -10 -7 -10 -16 0 -9 -5 -12
-12 -8 -7 4 -8 3 -4 -4 4 -7 2 -12 -4 -12 -6 0 -15 -11 -20 -25 -9 -23 -21
-30 -43 -26 -5 1 -11 -8 -14 -19 -4 -15 -12 -19 -29 -16 -18 4 -21 1 -17 -11
4 -11 2 -14 -5 -9 -6 3 -16 -2 -22 -11 -11 -17 -11 -17 -6 0 3 9 1 17 -4 17
-6 0 -10 -6 -10 -14 0 -8 -4 -18 -10 -21 -6 -4 -7 1 -4 12 5 17 5 17 -9 0 -8
-10 -18 -18 -21 -18 -24 3 -30 0 -16 -10 12 -8 10 -9 -7 -4 -15 4 -23 2 -23
-6 0 -7 -3 -9 -6 -6 -11 11 -45 -13 -37 -26 4 -7 0 -7 -10 2 -13 10 -17 10
-17 1 0 -7 -6 -10 -14 -7 -8 3 -16 -2 -19 -13 -3 -13 -12 -18 -25 -15 -14 2
-19 -1 -16 -10 3 -7 0 -16 -7 -21 -8 -5 -10 -3 -5 7 5 8 2 8 -6 -2 -7 -9 -20
-14 -28 -11 -8 3 -12 1 -8 -3 10 -10 -43 -51 -60 -47 -7 2 -16 -6 -19 -17 -3
-11 -11 -17 -18 -15 -7 3 -16 0 -21 -7 -5 -8 -3 -10 6 -4 9 6 11 4 6 -4 -5 -7
-14 -10 -22 -7 -9 3 -11 0 -7 -12 3 -9 3 -14 -1 -10 -5 4 -19 -5 -33 -20 -14
-15 -30 -26 -36 -24 -6 2 -4 -4 3 -13 7 -9 9 -15 4 -14 -19 3 -34 -1 -34 -12
0 -5 6 -7 13 -3 7 4 9 3 4 -2 -5 -5 -13 -10 -18 -10 -5 -1 -14 -2 -20 -3 -5 0
-7 -6 -3 -13 5 -7 2 -9 -9 -5 -12 4 -14 2 -10 -10 4 -11 2 -14 -5 -9 -11 6
-17 -5 -13 -26 0 -5 -7 -8 -16 -8 -15 0 -16 -2 -3 -10 13 -8 13 -10 -2 -10
-12 0 -16 -6 -13 -20 2 -11 0 -18 -4 -15 -11 6 -33 -20 -24 -28 3 -4 -1 -7
-10 -7 -10 0 -17 -5 -17 -11 0 -5 6 -7 13 -3 6 4 -3 -7 -21 -25 -35 -33 -33
-43 2 -13 21 17 21 17 4 -4 -10 -11 -18 -26 -18 -32 0 -6 -6 -15 -13 -19 -6
-4 -12 -15 -12 -23 0 -8 -6 -14 -13 -12 -16 3 -16 -10 0 -27 8 -9 8 -11 2 -8
-7 4 -15 0 -18 -9 -4 -10 -2 -13 7 -9 6 4 5 1 -4 -7 -9 -7 -14 -18 -12 -25 2
-6 -1 -15 -8 -19 -8 -5 -9 -3 -4 6 6 9 4 11 -5 5 -10 -6 -9 -11 5 -22 12 -8
14 -13 6 -13 -8 0 -11 -6 -7 -16 4 -11 2 -15 -7 -11 -8 3 -14 -1 -14 -9 0 -7
4 -11 8 -9 4 3 5 -4 2 -15 -3 -11 -10 -20 -15 -20 -5 0 -6 5 -2 12 4 7 3 8 -5
4 -9 -6 -9 -11 -1 -21 8 -10 7 -14 -2 -18 -10 -4 -10 -6 1 -6 11 -1 11 -4 0
-18 -8 -9 -9 -14 -3 -10 6 3 11 0 11 -8 0 -8 -4 -12 -7 -10 -4 3 -8 -7 -8 -21
0 -15 -6 -31 -13 -36 -11 -8 -10 -9 4 -4 10 3 16 2 12 -3 -3 -5 -2 -11 2 -14
5 -2 3 -3 -4 -1 -20 5 -23 -9 -5 -23 13 -12 14 -14 1 -10 -10 3 -15 -2 -15
-19 0 -13 4 -24 9 -24 5 0 4 -7 -3 -15 -7 -9 -10 -19 -6 -22 4 -4 11 -1 16 7
7 11 10 11 10 2 0 -7 -7 -15 -16 -19 -14 -5 -13 -8 7 -20 13 -8 16 -12 7 -9
-10 3 -20 1 -23 -4 -4 -6 -2 -10 3 -10 5 0 12 -10 15 -22 5 -21 5 -21 -7 -6
-11 15 -13 14 -13 -12 0 -17 4 -30 9 -30 5 0 6 4 3 10 -3 6 1 7 10 3 9 -3 13
-9 8 -12 -5 -3 -10 -18 -11 -33 -1 -15 -2 -31 -3 -35 -4 -21 2 -33 13 -27 7 5
8 3 2 -7 -12 -20 -14 -39 -3 -39 6 0 7 -5 4 -10 -4 -6 -12 -8 -18 -4 -7 3 -4
-1 6 -9 10 -9 14 -18 8 -21 -11 -7 -9 -25 4 -46 5 -8 9 -35 9 -61 1 -25 7 -53
15 -63 11 -13 11 -16 0 -16 -8 0 -6 -6 7 -16 10 -8 13 -13 7 -9 -8 4 -13 0
-13 -9 0 -8 6 -17 13 -19 9 -4 9 -6 -1 -6 -10 -1 -9 -5 3 -17 12 -13 13 -19 4
-30 -10 -12 -8 -13 7 -8 10 4 16 4 12 -1 -4 -4 -3 -17 3 -28 7 -12 7 -17 1
-13 -5 3 -12 -1 -15 -8 -4 -10 0 -14 12 -11 12 2 17 -4 18 -18 1 -12 3 -31 6
-42 2 -11 -3 -25 -11 -31 -13 -9 -12 -11 4 -9 11 0 26 5 33 10 10 6 12 4 6 -5
-10 -17 -13 -90 -3 -84 4 3 8 1 8 -5 0 -5 7 -17 16 -25 16 -16 22 -34 23 -71
1 -17 3 -17 11 -5 5 8 10 10 10 5 0 -6 -3 -15 -8 -20 -4 -6 -6 -9 -3 -8 4 2
20 -14 41 -42 15 -20 15 -20 -9 0 l-24 20 17 -27 c10 -16 14 -33 10 -40 -6
-11 -5 -11 8 0 13 10 18 10 24 1 4 -8 3 -9 -4 -5 -7 4 -12 3 -12 -3 0 -5 9
-13 20 -16 11 -3 20 -10 20 -15 0 -5 -8 -7 -17 -4 -10 4 -5 -5 11 -18 16 -14
26 -29 23 -35 -4 -6 2 -10 15 -9 21 1 25 -7 30 -65 1 -14 8 -26 15 -26 10 0
10 4 1 14 -6 7 -8 16 -4 20 3 3 6 1 6 -6 0 -7 5 -9 13 -5 6 4 9 4 5 -1 -8 -9
22 -65 34 -65 4 0 8 -7 8 -16 0 -8 5 -12 10 -9 6 3 10 1 10 -5 0 -6 5 -8 12
-4 8 5 9 2 5 -10 -6 -14 -3 -16 16 -11 19 5 19 4 5 -5 -9 -6 -15 -17 -12 -25
4 -8 11 -12 16 -9 6 4 5 10 -3 15 -11 7 -10 9 4 9 20 0 22 -20 5 -39 -11 -11
-10 -12 2 -5 8 5 24 10 35 11 16 3 17 1 5 -7 -10 -6 -11 -10 -2 -10 6 0 12 -5
12 -11 0 -5 -3 -8 -8 -6 -4 3 -8 -7 -8 -21 -2 -26 -1 -26 9 -5 12 27 27 30 27
6 0 -9 3 -14 6 -10 9 9 33 -16 26 -28 -3 -5 3 -3 13 5 11 9 16 10 11 3 -4 -8
-2 -13 4 -13 7 0 10 -7 7 -14 -6 -14 27 -33 46 -28 5 1 6 -2 3 -7 -3 -5 1 -12
10 -15 10 -4 13 -2 8 6 -5 7 -3 8 5 4 7 -5 10 -14 7 -22 -7 -17 10 -28 20 -13
5 8 3 9 -6 4 -8 -5 -11 -4 -6 3 10 17 36 3 29 -15 -4 -11 -2 -14 5 -9 7 4 12
3 12 -3 0 -6 7 -8 15 -5 8 4 17 -1 21 -10 3 -9 15 -16 25 -16 10 0 19 -5 19
-11 0 -6 6 -9 14 -6 7 3 23 -7 35 -24 12 -16 27 -29 34 -29 6 0 1 7 -11 16
-12 8 -22 20 -22 25 0 6 7 3 16 -5 8 -9 20 -14 25 -10 5 3 9 2 8 -3 -5 -29 10
-38 37 -21 6 4 11 1 11 -7 0 -8 -5 -11 -10 -8 -6 3 -7 1 -3 -6 6 -9 11 -9 23
1 14 11 15 10 9 -9 -4 -12 -2 -24 3 -28 6 -3 8 0 5 8 -7 19 14 33 28 19 6 -6
18 -8 27 -5 14 4 14 3 1 -6 -11 -8 -12 -11 -2 -11 7 0 11 -4 8 -8 -3 -5 1 -9
9 -9 8 0 12 3 10 7 -2 4 6 6 18 5 15 -1 21 -8 20 -21 -1 -10 0 -13 3 -6 7 14
44 16 44 2 0 -5 -4 -9 -9 -7 -8 2 -11 -3 -11 -19 0 -4 6 -2 13 4 7 6 25 13 39
16 21 3 26 1 21 -11 -5 -13 -3 -14 17 -3 19 10 22 10 17 -2 -3 -8 0 -15 6 -16
7 0 22 -3 35 -6 12 -3 20 -1 17 4 -3 5 5 7 17 4 13 -3 28 -6 35 -6 7 -1 10 -5
7 -10 -3 -5 -10 -5 -16 -2 -7 4 -8 2 -4 -4 5 -9 13 -9 27 -2 10 6 19 7 19 3 0
-4 5 -1 10 7 6 9 10 10 10 3 0 -7 -8 -16 -17 -22 -14 -7 -13 -9 9 -8 14 1 24
7 21 12 -2 6 6 11 17 12 13 1 20 -4 20 -17 0 -10 4 -22 10 -25 5 -3 7 0 4 8
-3 8 3 20 12 28 12 9 15 10 10 2 -5 -9 -1 -13 11 -13 15 0 16 -2 3 -10 -22
-14 -3 -12 20 3 17 10 22 9 30 -3 7 -11 10 -12 10 -2 0 10 4 10 16 -2 19 -20
25 -20 18 -1 -4 8 -2 15 4 15 6 0 12 -5 14 -10 5 -17 62 -17 75 0 10 13 11 11
7 -10 -2 -14 -2 -19 2 -12 3 6 13 12 23 12 9 0 23 6 30 13 11 9 13 9 7 0 -9
-15 5 -17 22 -3 9 7 9 7 2 -2 -14 -17 -12 -25 5 -25 8 0 12 4 9 9 -7 11 3 10
28 -3 16 -8 19 -8 13 1 -5 8 -3 11 6 8 8 -3 22 1 32 10 11 10 17 11 17 4 0 -7
7 -12 16 -12 9 0 12 -5 8 -12 -4 -7 -3 -8 4 -4 7 4 12 13 12 21 0 8 4 16 9 20
6 3 6 -6 1 -25 -5 -19 -5 -28 1 -25 5 4 9 12 9 18 0 7 9 13 20 13 25 0 26 -12
3 -25 -10 -6 -13 -11 -6 -11 6 0 18 9 26 21 10 13 16 16 19 8 3 -8 12 -4 27
12 15 16 20 19 16 7 -8 -20 10 -25 18 -5 4 10 6 10 6 0 1 -7 9 -13 19 -13 14
0 15 2 2 10 -12 8 -10 10 8 10 13 0 21 -4 18 -8 -3 -5 4 -8 15 -7 11 1 24 7
29 14 6 11 9 11 13 0 3 -9 6 -7 6 6 1 16 3 17 11 5 6 -9 5 -20 -3 -29 -9 -11
-6 -11 12 2 15 10 29 13 35 7 7 -5 21 -1 36 11 15 11 18 17 8 13 -10 -3 -18
-2 -18 4 0 6 13 8 31 5 24 -3 29 -2 23 9 -6 10 -4 10 9 -1 14 -11 17 -11 17 0
0 9 3 10 8 4 4 -5 16 -11 27 -12 20 -1 20 -1 1 13 -24 17 -13 19 17 2 20 -10
21 -10 8 6 -12 15 -12 17 0 14 8 -2 20 -10 27 -18 7 -8 12 -10 11 -5 -4 30 1
37 16 25 12 -10 15 -9 16 6 0 15 2 16 7 4 9 -18 33 -25 29 -7 -1 6 -6 15 -12
19 -6 5 -5 8 3 8 7 0 15 -7 18 -15 5 -12 10 -10 26 10 11 14 25 25 31 25 7 0
6 -5 -3 -11 -11 -8 -8 -9 13 -4 16 3 26 2 23 -3 -3 -5 2 -9 10 -9 10 0 11 4 4
11 -13 13 -13 29 0 21 6 -3 10 -1 10 5 0 8 6 7 21 -1 12 -6 19 -7 15 -1 -3 5
6 17 20 27 26 16 26 16 20 -7 l-7 -23 14 24 c11 18 16 21 21 10 3 -8 4 -4 2 8
-3 17 0 21 15 18 11 -2 24 -7 30 -11 7 -4 6 2 -1 17 l-13 24 22 -19 c20 -18
21 -18 15 -2 -8 22 10 35 43 31 19 -2 24 2 20 14 -3 13 3 16 30 15 18 -1 36 3
40 9 3 6 1 7 -5 3 -7 -4 -12 -2 -12 3 0 6 7 11 15 11 8 0 14 5 13 11 -3 14 48
47 80 52 12 2 25 7 29 12 5 4 2 5 -4 1 -7 -4 -13 -2 -13 3 0 10 21 16 43 12 4
-1 3 8 -3 19 -8 16 -8 20 2 18 7 -2 12 2 11 9 -2 7 6 10 17 8 13 -3 20 2 20
12 0 14 2 14 15 -3 14 -18 15 -17 6 8 -9 24 -8 26 14 24 18 -2 22 1 20 16 -3
14 1 17 20 14 14 -3 27 0 31 5 3 5 2 8 -3 7 -9 -3 -13 5 -13 27 0 9 6 12 15 9
11 -5 13 -2 9 10 -4 11 -1 16 10 16 9 0 16 6 14 14 -2 8 2 15 7 15 6 0 9 -6 7
-14 -1 -7 1 -16 6 -19 5 -3 8 10 7 28 0 28 3 33 18 30 15 -2 17 0 7 11 -9 11
-7 17 9 27 16 10 18 15 8 27 -10 12 -9 13 10 2 19 -10 22 -9 17 4 -4 8 1 17
10 21 9 3 13 10 10 15 -3 5 0 9 5 9 6 0 11 12 11 26 0 19 4 25 14 21 10 -4 14
0 11 14 -2 12 4 23 17 30 11 6 17 14 12 18 -5 3 -10 12 -12 20 -2 11 0 12 11
2 12 -9 16 -8 21 4 3 8 0 15 -7 16 -7 0 -2 4 10 9 15 6 21 15 17 25 -5 11 -2
14 12 9 11 -3 15 -2 8 3 -14 11 -27 46 -14 38 6 -3 10 -1 10 5 0 6 6 8 13 4 9
-5 9 -4 0 6 -8 9 -6 17 9 32 17 17 18 22 7 29 -10 6 -11 9 -1 9 6 0 12 5 12
11 0 5 -5 7 -12 3 -7 -4 -8 -3 -4 5 4 6 12 9 17 6 5 -4 10 3 10 14 3 48 5 57
12 68 5 7 10 23 12 35 3 12 10 25 16 29 8 4 8 9 1 13 -12 7 -4 37 12 48 6 4
11 15 11 25 0 10 4 24 9 32 6 10 5 12 -2 7 -13 -8 -17 6 -5 18 11 10 11 50 1
63 -7 9 -2 10 21 3 19 -5 29 -5 26 1 -4 5 -14 9 -23 9 -15 0 -15 2 -2 10 10 6
11 10 3 10 -7 0 -13 5 -13 11 0 5 4 8 9 5 16 -10 20 23 5 39 -14 13 -14 15 3
15 15 0 16 2 3 10 -11 7 -11 10 -2 10 10 0 10 5 1 21 -6 12 -7 19 -1 15 13 -8
24 22 15 37 -13 20 -12 39 1 34 7 -3 13 1 13 9 0 7 -4 11 -9 8 -11 -7 -10 3 2
27 7 13 7 19 0 19 -5 0 -10 5 -10 11 0 5 4 8 8 5 5 -3 9 1 9 9 0 8 -3 12 -7
10 -4 -2 -5 19 -2 47 4 40 2 49 -8 43 -9 -5 -11 -4 -6 3 4 7 14 12 22 12 17 0
19 16 2 26 -7 5 -8 3 -3 -6 5 -9 4 -11 -4 -6 -6 4 -8 13 -4 19 4 6 7 29 6 49
-1 25 2 36 9 32 7 -4 8 -2 4 4 -4 6 -13 9 -21 6 -15 -6 -16 31 0 55 6 10 4 12
-5 6 -9 -6 -11 4 -9 43 2 27 1 48 -3 46 -4 -2 -9 0 -12 5 -4 5 -2 12 4 16 5 3
10 11 10 17 0 6 -7 5 -17 -3 -15 -13 -15 -12 -3 11 12 23 12 24 -3 12 -14 -12
-15 -10 -13 12 1 14 6 29 9 33 15 14 6 25 -10 12 -10 -7 -15 -9 -11 -5 4 5 2
16 -5 24 -9 13 -9 14 1 8 6 -4 12 -3 12 2 0 6 -6 12 -13 15 -8 3 -13 18 -12
36 2 27 0 29 -14 19 -9 -7 -13 -8 -9 -4 4 5 2 16 -5 24 -10 13 -9 14 3 7 12
-6 13 -5 3 6 -7 7 -13 21 -13 30 0 10 -4 21 -10 24 -6 4 -7 -1 -4 -12 5 -14 4
-15 -4 -4 -6 8 -8 20 -5 28 3 7 0 13 -7 13 -6 0 -8 5 -5 10 3 6 -2 10 -12 11
-10 0 -13 3 -6 6 8 3 3 15 -17 36 -21 22 -26 34 -17 39 8 5 7 8 -5 8 -10 0
-24 13 -32 28 -8 16 -23 35 -33 43 -15 11 -15 10 2 -11 l20 -25 -22 19 c-13
11 -23 25 -23 33 0 8 -4 11 -10 8 -5 -3 -10 3 -10 15 0 12 -4 19 -9 16 -5 -3
-11 1 -15 9 -3 8 -12 15 -21 15 -8 0 -15 6 -15 14 0 7 -8 20 -17 27 -17 13
-17 13 -3 -6 14 -19 14 -19 -2 -6 -10 7 -18 20 -18 28 0 8 -4 11 -10 8 -5 -3
-10 -1 -10 5 0 6 -5 8 -12 4 -8 -5 -7 0 2 11 9 11 10 16 3 11 -8 -4 -13 -2
-13 6 0 9 -3 9 -10 -2 -8 -13 -10 -12 -10 3 0 9 -4 18 -10 18 -5 1 -14 2 -19
3 -6 0 -16 7 -23 15 -11 12 -11 13 1 6 10 -6 12 -4 7 4 -6 9 -11 9 -24 -1 -12
-10 -14 -10 -8 0 4 7 2 12 -4 12 -6 0 -9 4 -6 8 3 5 -1 9 -9 10 -8 1 -22 3
-30 4 -8 1 -13 3 -11 6 9 8 -19 30 -31 25 -7 -3 -13 -1 -13 4 0 12 -50 37 -66
35 -7 -1 -14 5 -18 13 -3 9 -10 14 -15 10 -5 -3 -12 -1 -16 5 -3 5 -11 10 -16
10 -6 0 -7 -5 -3 -11 5 -8 1 -8 -14 0 -12 6 -24 17 -28 24 -6 9 -5 9 7 0 13
-10 16 -10 16 1 0 8 -10 12 -28 11 -16 -1 -34 4 -40 11 -6 8 -15 11 -20 8 -5
-3 -16 1 -23 9 -11 11 -12 17 -3 27 9 10 9 11 -2 5 -11 -6 -13 -4 -7 10 5 15
4 16 -9 5 -9 -7 -15 -9 -14 -4 2 5 -1 19 -5 32 -6 17 -11 20 -21 12 -9 -8 -14
-6 -19 5 -3 9 -2 13 3 10 5 -3 13 -1 16 5 4 6 3 10 -2 9 -21 -4 -34 2 -27 13
4 7 3 8 -5 4 -6 -4 -9 -11 -6 -16 3 -5 1 -12 -5 -15 -6 -4 -10 -3 -9 2 4 22
-2 44 -10 38 -5 -3 -12 -1 -16 5 -3 5 -1 10 6 10 7 0 9 3 6 7 -4 3 -16 -2 -28
-13 -11 -10 -20 -14 -19 -9 2 6 2 19 1 30 -1 17 -3 18 -11 5 -8 -13 -10 -12
-10 3 0 11 -8 17 -24 17 -13 0 -27 6 -29 13 -3 7 -6 5 -6 -5 -1 -10 -5 -18
-11 -18 -5 0 -7 6 -4 14 3 8 0 17 -7 22 -7 4 -10 3 -5 -4 3 -6 -1 -9 -11 -7
-10 1 -24 -3 -32 -9 -11 -8 -13 -8 -7 2 5 8 0 12 -13 13 -40 3 -46 5 -43 17 3
15 -5 16 -13 2z m-935 -38 c0 -5 -7 -9 -15 -9 -8 0 -12 4 -9 9 3 4 9 8 15 8 5
0 9 -4 9 -8z m131 -29 c13 -17 13 -17 -6 -3 -11 8 -22 16 -24 17 -2 2 0 3 6 3
6 0 17 -8 24 -17z m1244 -192 c3 -5 2 -12 -3 -15 -5 -3 -9 1 -9 9 0 17 3 19
12 6z m199 -100 c-2 -3 -12 3 -22 13 -16 17 -16 18 5 5 12 -7 20 -15 17 -18z
m681 -980 c3 -5 2 -12 -3 -15 -5 -3 -9 1 -9 9 0 17 3 19 12 6z m-5 -351 c0 -5
-2 -10 -4 -10 -3 0 -8 5 -11 10 -3 6 -1 10 4 10 6 0 11 -4 11 -10z m-3664
-185 c-1 -8 -5 -17 -8 -21 -5 -4 -4 16 1 34 3 9 9 -1 7 -13z m2899 -1154 c3
-5 2 -12 -3 -15 -5 -3 -9 1 -9 9 0 17 3 19 12 6z m-1644 -228 c13 -16 12 -17
-3 -4 -10 7 -18 15 -18 17 0 8 8 3 21 -13z m984 -24 c-4 -5 -1 -9 5 -9 6 0 8
-5 5 -11 -9 -13 -15 -7 -20 20 -2 12 0 19 6 16 5 -4 7 -11 4 -16z m-25 -9 c0
-5 -5 -10 -11 -10 -5 0 -7 5 -4 10 3 6 8 10 11 10 2 0 4 -4 4 -10z"/>
<path d="M2781 3604 c0 -11 3 -14 6 -6 3 7 2 16 -1 19 -3 4 -6 -2 -5 -13z"/>
<path d="M629 3203 c-13 -16 -12 -17 4 -4 9 7 17 15 17 17 0 8 -8 3 -21 -13z"/>
<path d="M130 2079 c0 -5 5 -7 10 -4 6 3 10 8 10 11 0 2 -4 4 -10 4 -5 0 -10
-5 -10 -11z"/>
<path d="M153 1825 c0 -8 4 -12 9 -9 5 3 6 10 3 15 -9 13 -12 11 -12 -6z"/>
<path d="M220 1539 c0 -5 5 -7 10 -4 6 3 10 8 10 11 0 2 -4 4 -10 4 -5 0 -10
-5 -10 -11z"/>
<path d="M3771 1526 c-9 -10 -7 -17 6 -27 16 -12 17 -12 6 2 -10 12 -10 18 -1
27 7 7 9 12 6 12 -3 0 -11 -6 -17 -14z"/>
<path d="M253 1435 c0 -8 4 -12 9 -9 5 3 6 10 3 15 -9 13 -12 11 -12 -6z"/>
<path d="M303 1325 c0 -8 4 -12 9 -9 5 3 6 10 3 15 -9 13 -12 11 -12 -6z"/>
<path d="M465 1051 c-3 -5 -2 -12 3 -15 5 -3 9 1 9 9 0 17 -3 19 -12 6z"/>
<path d="M3356 807 c3 -10 9 -15 12 -12 3 3 0 11 -7 18 -10 9 -11 8 -5 -6z"/>
<path d="M3284 758 c-4 -7 -3 -8 5 -4 6 4 20 2 29 -6 15 -12 16 -11 3 5 -16
20 -27 22 -37 5z"/>
<path d="M3173 678 c-25 -12 -29 -23 -13 -33 6 -4 9 -1 8 7 -2 7 4 13 13 12 9
-1 16 5 16 12 0 8 -1 14 -1 13 -1 0 -11 -5 -23 -11z"/>
<path d="M3210 659 c0 -5 5 -7 10 -4 6 3 10 8 10 11 0 2 -4 4 -10 4 -5 0 -10
-5 -10 -11z"/>
<path d="M817 635 c-4 -8 -3 -16 1 -19 4 -3 9 4 9 15 2 23 -3 25 -10 4z"/>
<path d="M895 580 c3 -5 8 -10 11 -10 2 0 4 5 4 10 0 6 -5 10 -11 10 -5 0 -7
-4 -4 -10z"/>
<path d="M926 582 c-3 -5 1 -9 9 -9 8 0 12 4 9 9 -3 4 -7 8 -9 8 -2 0 -6 -4
-9 -8z"/>
<path d="M3006 572 c-3 -5 1 -9 9 -9 8 0 12 4 9 9 -3 4 -7 8 -9 8 -2 0 -6 -4
-9 -8z"/>
<path d="M1000 555 c-11 -13 -10 -14 4 -9 9 3 16 10 16 15 0 13 -6 11 -20 -6z"/>
<path d="M1030 521 c0 -6 4 -13 10 -16 6 -3 7 1 4 9 -7 18 -14 21 -14 7z"/>
<path d="M2922 485 c15 -16 20 -17 30 -6 11 11 10 13 0 7 -7 -4 -21 -2 -30 5
-15 12 -15 11 0 -6z"/>
<path d="M1295 380 c3 -5 8 -10 11 -10 2 0 4 5 4 10 0 6 -5 10 -11 10 -5 0 -7
-4 -4 -10z"/>
<path d="M2650 379 c0 -5 5 -7 10 -4 6 3 10 8 10 11 0 2 -4 4 -10 4 -5 0 -10
-5 -10 -11z"/>
<path d="M1611 364 c0 -11 3 -14 6 -6 3 7 2 16 -1 19 -3 4 -6 -2 -5 -13z"/>
<path d="M1380 366 c0 -2 8 -10 18 -17 15 -13 16 -12 3 4 -13 16 -21 21 -21
13z"/>
<path d="M1476 358 c3 -5 10 -6 15 -3 13 9 11 12 -6 12 -8 0 -12 -4 -9 -9z"/>
<path d="M1513 345 c0 -8 4 -12 9 -9 5 3 6 10 3 15 -9 13 -12 11 -12 -6z"/>
<path d="M1916 342 c-3 -5 1 -9 9 -9 8 0 12 4 9 9 -3 4 -7 8 -9 8 -2 0 -6 -4
-9 -8z"/>
<path d="M2055 340 c3 -5 11 -10 16 -10 6 0 7 5 4 10 -3 6 -11 10 -16 10 -6 0
-7 -4 -4 -10z"/>
<path d="M1476 327 c3 -10 9 -15 12 -12 3 3 0 11 -7 18 -10 9 -11 8 -5 -6z"/>
<path d="M2250 337 c0 -2 6 -10 14 -16 11 -9 16 -9 22 1 4 7 4 10 -1 6 -4 -4
-14 -3 -22 3 -7 6 -13 9 -13 6z"/>
<path d="M1616 318 c3 -5 10 -6 15 -3 13 9 11 12 -6 12 -8 0 -12 -4 -9 -9z"/>
<path d="M1573 303 c4 -3 1 -13 -6 -22 -11 -14 -10 -14 5 -2 16 12 16 31 1 31
-4 0 -3 -3 0 -7z"/>
<path d="M1656 298 c3 -4 11 -5 19 -1 21 7 19 12 -4 10 -11 0 -18 -5 -15 -9z"/>
<path d="M2015 300 c-3 -5 -1 -10 4 -10 6 0 11 5 11 10 0 6 -2 10 -4 10 -3 0
-8 -4 -11 -10z"/>
<path d="M2055 300 c-3 -5 -1 -10 4 -10 6 0 11 5 11 10 0 6 -2 10 -4 10 -3 0
-8 -4 -11 -10z"/>
<path d="M2090 299 c0 -5 5 -7 10 -4 6 3 10 8 10 11 0 2 -4 4 -10 4 -5 0 -10
-5 -10 -11z"/>
<path d="M2376 298 c3 -5 10 -6 15 -3 13 9 11 12 -6 12 -8 0 -12 -4 -9 -9z"/>
<path d="M2413 295 c0 -8 4 -12 9 -9 5 3 6 10 3 15 -9 13 -12 11 -12 -6z"/>
<path d="M2126 282 c-3 -5 1 -9 9 -9 8 0 12 4 9 9 -3 4 -7 8 -9 8 -2 0 -6 -4
-9 -8z"/>
</g>
</svg>
